<?xml version="1.0" standalone="no"?> <!DOCTYPE svg PUBLIC "-//W3C//DTD SVG 1.0//EN" "http://www.w3.org/TR/2001/REC-SVG-20010904/DTD/svg10.dtd" > <svg xmlns="http://www.w3.org/2000/svg" width="100%" height="100%">
<defs >
<font horiz-adv-x="611" ><font-face
    font-family="Britanica-Regular"
    units-per-em="1000"
    panose-1="0 0 5 0 0 0 0 0 0 0"
    ascent="781"
    descent="-219"
    alphabetic="0" />
<missing-glyph horiz-adv-x="715" d="M122 547Q219 645 357 645T593 547T691 311T593 76T357 -22T122 75T24 311T122 547ZM38 312Q38 180 132 86T358 -8Q491 -8 584 86T678 312Q678 445 585 538T358 632Q226 632 132 539T38 312ZM194 330Q194 347 206 359T236
372Q258 372 272 353Q284 372 307 372Q316 372 323 369L304 492Q303 496 303 500Q303 514 312 527T339 545Q342 546 346 546Q357 546 369 538Q385 527 388 508L411 361L433 508Q436 527 452 538Q464 546 475 546Q479 546 482 545Q499 541 508 528T518 500Q518 496
517 492L489 316Q499 304 499 291V238Q499 174 454 129Q408 85 347 85H343Q282 87 237 132Q194 177 194 240V330ZM207 246V240Q207 183 247 141Q287 101 344 99Q347 99 349 99Q404 99 444 139Q486 179 486 238V289Q486 301 478 309L477 310Q469 318 457 318H381Q369
318 361 310T352 289T360 269T381 260H426Q432 260 432 253Q432 247 426 247Q396 247 375 226T354 175Q354 168 347 168T340 175Q340 222 380 247Q361 247 347 263Q338 235 307 235Q284 235 272 254Q258 235 236 235Q220 235 207 246ZM419 331H457Q470 331 477
326L504 494Q504 497 504 500Q504 510 498 519T480 531Q477 532 474 532Q467 532 460 527Q449 519 447 506L419 331ZM317 494L339 358Q350 347 350 330V318Q361 331 381 331H402L374 506Q372 519 361 527Q354 532 347 532Q344 532 341 531Q329 529 323 520T317
500Q317 497 317 494ZM278 330V277Q278 265 286 257T307 248T327 256T336 277V330Q336 342 328 350Q328 351 327 351Q319 359 307 359T287 351T278 330ZM207 330V277Q207 265 215 257T236 248T256 256T265 277V330Q265 342 257 350T236 359T216 351T207 330Z" />
<glyph unicode=" " glyph-name="space" horiz-adv-x="268" />
<glyph unicode="!" glyph-name="exclam" horiz-adv-x="206" d="M64 643H142L131 180H75L64 643ZM66 84Q81 99 102 99Q124 99 140 84Q155 69 155 47T140 10T102 -5Q81 -5 66 10T51 47T66 84Z" />
<glyph unicode="&quot;" glyph-name="quotedbl" horiz-adv-x="284" d="M111 643L101 450H50L40 643H111ZM173 643H243L233 450H183L173 643Z" />
<glyph unicode="#" glyph-name="numbersign" horiz-adv-x="707" d="M51 165V225H169L208 390H104V450H222L267 643H338L293 450H481L526 643H597L552 450H656V390H538L499 225H603V165H485L447 0H376L414 165H226L188 0H117L155 165H51ZM240 225H428L467 390H279L240
225Z" />
<glyph unicode="$" glyph-name="dollar" horiz-adv-x="617" d="M105 193Q105 187 106 178T119 144T150 101T212 67T310 52Q369 52 411 65T474 98T502 139T511 179Q511 221 479 248T396 288T288 313T178 340T90 383T50 460Q49 469 49 477Q49 547 106 595T270 652V727H341V652Q402
648 447 630T514 588T547 543T560 504L562 489H485Q485 493 484 500T471 524T443 555T389 580T304 591Q215 591 169 558T123 479Q123 472 124 464Q128 432 164 411T252 382T362 359T471 329T553 274T586 180Q586 95 523 46T341 -9V-81H270V-8Q208 -3 160 19T89
67T50 123T32 170T28 193H105Z" />
<glyph unicode="%" glyph-name="percent" horiz-adv-x="671" d="M86 609Q121 654 188 654Q258 654 292 610T326 489Q326 414 292 370T188 325Q121 325 86 370T51 489Q51 564 86 609ZM345 151Q345 226 380 271T482 316Q552 316 586 272T620 151Q620 76 586 32T482
-13Q415 -13 380 32T345 151ZM382 151Q382 92 407 55T482 18Q533 18 557 55T582 151Q582 211 558 247T482 284Q433 284 408 248T382 151ZM88 489Q88 430 113 393T188 356Q239 356 263 393T288 489Q288 549 264 585T188 622Q139 622 114 586T88 489ZM75 0L550 643H600L125
0H75Z" />
<glyph unicode="&amp;" glyph-name="ampersand" horiz-adv-x="653" d="M163 339Q75 377 75 467Q75 547 142 595T315 643Q365 643 404 634T468 609T509 574T533 536T545 502T549 476V467H474Q474 472 473 479T464 507T440 542T393 570T315 583Q241 583 196 553T150
467Q150 466 150 464Q150 428 174 396T248 363H603V303H549V89Q549 72 554 66T576 60H603V0H574Q521 0 500 19T478 88Q419 -10 298 -10Q188 -10 120 43T51 186Q51 301 163 339ZM173 90Q217 52 298 50Q384 52 431 97T478 220V303H267Q202 303 165 273T128 186Q128
127 173 90Z" />
<glyph unicode="&apos;" glyph-name="quotesingle" horiz-adv-x="151" d="M111 643L101 450H50L40 643H111Z" />
<glyph unicode="(" glyph-name="parenleft" horiz-adv-x="256" d="M51 305Q51 378 62 447T89 562T122 643T149 696L160 712H205Q201 706 195 695T174 645T147 563T126 449T116 305T125 163T147 49T173 -32T196 -84L205 -100H160Q156 -94 149 -83T122 -32T89 50T63
163T51 305Z" />
<glyph unicode=")" glyph-name="parenright" horiz-adv-x="256" d="M96 712Q100 706 107 695T134 644T167 561T193 448T205 305T194 164T167 50T134 -31T107 -84L96 -100H51Q55 -94 61 -83T82 -34T109 48T130 161T140 305T131 448T109 563T83 644T60 696L51 712H96Z" />
<glyph unicode="*" glyph-name="asterisk" horiz-adv-x="340" d="M300 531L203 503L264 425L227 397L169 479L112 398L75 425L136 503L40 532L55 576L150 542L147 643H193L191 542L286 576L300 531Z" />
<glyph unicode="+" glyph-name="plus" horiz-adv-x="591" d="M107 322H263V480H329V322H484V262H329V103H263V262H107V322Z" />
<glyph unicode="," glyph-name="comma" horiz-adv-x="199" d="M65 95H156L85 -79H44L65 95Z" />
<glyph unicode="-" glyph-name="hyphen" horiz-adv-x="591" d="M484 220H107V280H484V220Z" />
<glyph unicode="." glyph-name="period" horiz-adv-x="191" d="M59 84Q74 99 95 99Q117 99 133 84Q148 69 148 47T133 10T95 -5Q74 -5 59 10T44 47T59 84Z" />
<glyph unicode="/" glyph-name="slash" horiz-adv-x="457" d="M120 0H51L338 643H407L120 0Z" />
<glyph unicode="0" glyph-name="zero" horiz-adv-x="606" d="M24 321Q24 471 95 562T303 653Q445 653 513 564T582 321Q582 169 514 80T303 -10Q167 -10 96 81Q24 171 24 321ZM153 128Q205 52 303 52Q404 52 454 127T505 321Q505 442 455 516T303 591Q204 591
153 516T101 321Q101 203 153 128Z" />
<glyph unicode="1" glyph-name="one" horiz-adv-x="412" d="M24 545H128Q153 545 161 558T170 600V643H241V60H388V0H24V60H170V494Q150 485 128 485H24V545Z" />
<glyph unicode="2" glyph-name="two" horiz-adv-x="578" d="M73 103Q94 149 128 180T205 239T289 289T366 334T423 386T447 450Q447 455 447 459Q447 517 409 554T297 591Q252 591 220 577T173 545T151 504T143 472T142 457H67Q67 463 67 470T72 498T84 537T109
577T149 615T211 642T297 653Q409 653 466 600T524 459Q524 454 524 450Q522 395 487 352T400 278T295 218T197 149T138 60H528V0H51Q51 56 73 103Z" />
<glyph unicode="3" glyph-name="three" horiz-adv-x="538" d="M24 182V194H101Q101 188 101 179T110 145T134 102T184 68T265 52Q343 52 386 90T430 192Q430 234 408 262T351 300T289 314T245 317Q222 317 200 313V378Q216 377 231 377Q297 377 348 401T399 486Q399
534 365 562T260 591Q218 591 188 578T144 545T123 507T116 474L115 461H38Q38 469 39 482T51 528T83 586T150 632T260 653Q359 653 416 605T474 486Q474 394 372 350Q506 318 507 192Q507 191 507 189Q507 106 442 48T265 -10Q215 -10 175 1T110 30T68 70T42 114T30
153T24 182Z" />
<glyph unicode="4" glyph-name="four" horiz-adv-x="609" d="M51 209L387 643H458V209H558V149H458V0H387V149H51V209ZM129 209H387V537L129 209Z" />
<glyph unicode="5" glyph-name="five" horiz-adv-x="593" d="M126 194Q126 188 127 179T136 145T160 102T210 68T291 52Q373 52 419 98T466 221Q466 305 415 350T292 398Q288 398 284 398Q233 398 187 372T124 298H56L108 643H502V582H168L139 393Q205 452 303
452Q307 452 310 452Q406 451 474 391T542 221Q542 116 474 53T291 -10Q242 -10 203 1T139 30T97 70T71 114T57 153T52 182L51 194H126Z" />
<glyph unicode="6" glyph-name="six" horiz-adv-x="539" d="M31 386Q37 433 54 483T100 569T175 629T282 653Q335 653 376 639T439 603T474 562T490 526L494 512H417Q416 515 415 520T404 540T382 565T342 585T283 594Q237 594 202 572T147 520T116 451T101 385T98
336Q100 340 104 346T123 370T156 401T205 424T273 435Q380 435 447 376T515 220Q515 120 451 55T273 -10Q152 -10 88 69T24 288Q24 338 31 386ZM106 217Q106 150 151 101T273 52Q353 52 396 101T440 220Q440 289 394 333T273 378Q195 378 151 333T106 217Z" />
<glyph unicode="7" glyph-name="seven" horiz-adv-x="554" d="M51 583V643H504V585Q494 577 477 561T417 490T339 371T275 208T239 0H158Q162 100 190 195T260 365T339 490T416 583H51Z" />
<glyph unicode="8" glyph-name="eight" horiz-adv-x="541" d="M24 183Q24 236 58 279T155 344Q56 381 56 478Q56 556 115 604T271 653T426 605T485 478Q485 436 461 400T387 345Q450 323 483 280T517 183Q517 92 453 41T271 -10Q151 -10 88 40T24 183ZM146 86Q190
49 271 49T396 86T440 185Q440 246 392 281T271 316Q200 316 151 281T101 185Q101 123 146 86ZM171 400Q212 369 271 369Q332 369 371 399T411 480Q411 532 374 564T271 597Q204 597 167 565T130 480Q130 430 171 400Z" />
<glyph unicode="9" glyph-name="nine" horiz-adv-x="539" d="M88 589Q152 654 266 654Q387 654 451 575T515 356Q515 306 509 259T485 161T439 75T364 15T257 -9Q204 -9 163 5T100 41T65 82T48 118L45 132H122Q123 129 124 124T135 104T157 79T197 59T256 50Q302
50 337 72T392 124T423 193T438 259T441 308Q439 304 435 298T416 274T383 243T334 220T266 209Q159 209 92 268T24 424Q24 524 88 589ZM145 311Q191 266 266 266Q344 266 388 311T433 427Q433 494 388 543T266 592Q186 592 143 543T99 424Q99 355 145 311Z" />
<glyph unicode=":" glyph-name="colon" horiz-adv-x="191" d="M44 335Q44 357 59 372T95 387Q117 387 133 372Q148 357 148 335T133 298T95 283Q74 283 59 298T44 335ZM44 47Q44 69 59 84T95 99Q117 99 133 84Q148 69 148 47T133 10T95 -5Q74 -5 59 10T44 47Z" />
<glyph unicode=";" glyph-name="semicolon" horiz-adv-x="211" d="M65 95H156L85 -79H44L65 95ZM79 372Q94 387 115 387Q137 387 153 372Q168 357 168 335T153 298T115 283Q94 283 79 298T64 335T79 372Z" />
<glyph unicode="&lt;" glyph-name="less" horiz-adv-x="591" d="M484 445V385L178 288L484 190V130L107 251V324L484 445Z" />
<glyph unicode="=" glyph-name="equal" horiz-adv-x="591" d="M484 410V350H107V410H484ZM107 170V230H484V170H107Z" />
<glyph unicode="&gt;" glyph-name="greater" horiz-adv-x="591" d="M413 288L107 385V445L484 324V251L107 130V190L413 288Z" />
<glyph unicode="?" glyph-name="question" horiz-adv-x="523" d="M54 491Q58 509 63 530T84 573T122 613T180 642T264 653Q363 653 417 601T472 472Q472 470 472 467Q471 433 456 406T420 362T373 325T327 287T292 238T278 169H213Q213 172 213 175Q213 227 230
266T273 329T325 371T372 413T395 467Q395 472 395 478Q395 525 361 558T264 591Q223 591 194 577T152 541T133 500T126 464V450H51Q52 451 52 453Q52 456 51 460T50 468Q50 477 54 491ZM194 47Q194 69 209 84T246 99Q268 99 284 84Q299 69 299 47T284 10T246 -5Q225
-5 210 10T194 47Z" />
<glyph unicode="@" glyph-name="at" horiz-adv-x="893" d="M26 314Q41 486 160 584T459 682Q461 682 463 682Q642 681 755 586T869 327Q869 223 816 153T685 82Q678 82 670 83Q582 90 560 160Q512 90 429 86Q423 86 417 86Q337 86 287 137T237 268Q237 275 239
324T301 431T443 489Q446 489 449 489Q534 488 577 420L581 464H634L613 263Q611 237 611 214Q611 206 611 188T629 149T679 129Q680 129 681 129Q740 129 771 187T803 327Q803 463 712 546T463 631Q461 631 459 631Q300 631 202 542T94 306Q93 290 93 274Q93 129
190 33T467 -63Q519 -63 563 -55T633 -34T678 -9T704 12L711 21H789Q787 18 784 13T767 -6T738 -33T694 -61T635 -88T560 -107T466 -115Q259 -115 142 -3T24 269Q24 291 26 314ZM334 175Q365 136 422 136Q427 136 433 136Q491 140 523 186T561 289Q562 303 562
315Q562 368 536 402T447 439Q446 439 444 439Q387 439 347 395T303 283Q303 278 303 273Q303 215 334 175Z" />
<glyph unicode="A" glyph-name="A" horiz-adv-x="647" d="M5 0L285 643H363L642 0H564L505 142H143L83 0H5ZM479 202L324 574L168 202H479Z" />
<glyph unicode="B" glyph-name="B" horiz-adv-x="598" d="M51 643H299Q428 643 486 602T544 471Q544 379 446 344Q568 310 568 184Q568 98 510 49T326 0H51V643ZM122 60H326Q492 60 492 184Q492 248 452 275T326 302H122V60ZM122 363H326Q471 363 471 471Q471
530 430 556T299 583H122V363Z" />
<glyph unicode="C" glyph-name="C" horiz-adv-x="670" d="M112 561Q200 653 357 653Q433 653 490 632T576 582T621 522T642 471L646 450H570Q569 456 566 465T549 499T513 542T451 576T357 591Q230 591 165 513T99 321Q99 210 166 131T357 52Q409 52 450 66T512
101T546 143T564 178L567 193H644Q643 185 640 171T618 122T571 61T487 12T357 -10Q200 -10 112 82T24 321Q24 468 112 561Z" />
<glyph unicode="D" glyph-name="D" horiz-adv-x="652" d="M316 643Q461 643 544 555T628 321Q628 178 544 89T316 0H51V643H316ZM316 60Q431 61 492 136T554 321Q554 439 494 511T316 583H122V60H316Z" />
<glyph unicode="E" glyph-name="E" horiz-adv-x="540" d="M51 643H502V583H122V354H451V294H122V60H512V0H51V643Z" />
<glyph unicode="F" glyph-name="F" horiz-adv-x="514" d="M485 643V583H122V344H435V284H122V0H51V643H485Z" />
<glyph unicode="G" glyph-name="G" horiz-adv-x="688" d="M24 321Q24 468 112 560T358 653Q412 653 457 642T532 613T583 574T617 530T636 490T646 461L648 450H571Q570 456 568 465T551 499T515 542T453 576T358 591Q231 591 165 513T99 321Q99 210 166 131T358
52Q414 52 458 71T528 122T568 189T585 261H361V321H659Q659 314 659 306Q659 247 644 192T593 90T498 17T358 -10Q206 -10 115 82T24 321Z" />
<glyph unicode="H" glyph-name="H" horiz-adv-x="659" d="M122 643V351H537V643H608V0H537V291H122V0H51V643H122Z" />
<glyph unicode="I" glyph-name="I" horiz-adv-x="505" d="M24 60H217V583H27V643H479V583H288V60H482V0H24V60Z" />
<glyph unicode="J" glyph-name="J" horiz-adv-x="550" d="M30 256H104Q104 252 104 248T103 241Q103 233 105 214T112 176T128 133T157 92T203 64T269 52Q363 52 399 104T435 258V643H506V258Q506 129 454 60T269 -10Q151 -10 91 57T30 256Z" />
<glyph unicode="K" glyph-name="K" horiz-adv-x="584" d="M51 0V643H122V277L455 643H541L289 368L571 0H489L243 317L122 186V0H51Z" />
<glyph unicode="L" glyph-name="L" horiz-adv-x="496" d="M122 60H466V0H51V643H122V60Z" />
<glyph unicode="M" glyph-name="M" horiz-adv-x="812" d="M51 0V643H128L406 74L684 643H762V0H691V513L443 0H369L122 512V0H51Z" />
<glyph unicode="N" glyph-name="N" horiz-adv-x="666" d="M51 643H136L544 93V643H615V0H532L122 553V0H51V643Z" />
<glyph unicode="O" glyph-name="O" horiz-adv-x="719" d="M116 558Q207 653 360 653Q514 653 604 558T695 321Q695 180 605 85T360 -10Q207 -10 116 85T24 321Q24 463 116 558ZM168 132Q236 52 360 52Q485 52 553 132Q620 211 620 321T553 511T360 591Q236 591
168 511T99 321T168 132Z" />
<glyph unicode="P" glyph-name="P" horiz-adv-x="570" d="M304 643Q426 643 486 591T546 446Q546 359 485 305T304 250H122V0H51V643H304ZM122 583V310H304Q389 310 431 348T473 446Q473 510 432 546T304 583H122Z" />
<glyph unicode="Q" glyph-name="Q" horiz-adv-x="719" d="M24 321Q24 463 115 558T360 653Q514 653 604 558T695 321Q695 188 615 96T395 -9V-42Q395 -60 400 -66T422 -72H490V-132H422Q369 -132 348 -113T326 -42V-9Q187 3 106 95T24 321ZM99 321Q99 256 123
200T200 103T326 54V162H395V54Q504 65 562 142T620 321Q620 431 553 511T360 591Q236 591 168 511T99 321Z" />
<glyph unicode="R" glyph-name="R" horiz-adv-x="583" d="M304 643Q426 643 486 591T546 446Q546 328 443 277Q522 261 522 184V0H451V184Q451 221 434 235T376 250H122V0H51V643H304ZM122 310H304Q389 310 431 348T473 446Q473 510 432 546T304 583H122V310Z" />
<glyph unicode="S" glyph-name="S" horiz-adv-x="617" d="M28 193H105Q105 187 106 178T119 144T150 101T212 67T310 52Q369 52 411 65T474 98T502 139T511 179Q511 221 479 248T396 288T288 313T178 340T90 383T50 460Q49 468 49 476Q49 554 116 603T304 653Q376
653 429 636T506 595T544 547T560 506L562 489H485Q485 493 484 500T471 524T443 555T389 580T304 591Q215 591 169 558T123 479Q123 472 124 464Q128 432 164 411T252 382T362 359T471 329T553 274T586 180Q586 89 515 40T310 -10Q237 -10 182 10T98 58T53 117T32
167T28 193Z" />
<glyph unicode="T" glyph-name="T" horiz-adv-x="605" d="M24 643H582V583H337V0H266V583H24V643Z" />
<glyph unicode="U" glyph-name="U" horiz-adv-x="648" d="M44 643H115V271Q115 225 123 190T152 121T216 70T324 52T431 70T496 121T526 189T534 271V643H605V271Q605 211 595 167T557 79T471 13T324 -10Q238 -10 180 13T93 79T55 166T44 271V643Z" />
<glyph unicode="V" glyph-name="V" horiz-adv-x="670" d="M94 643L335 68L576 643H653L374 0H297L17 643H94Z" />
<glyph unicode="W" glyph-name="W" horiz-adv-x="1023" d="M94 643L289 83L479 643H544L735 83L929 643H1006L774 0H696L512 549L328 0H250L17 643H94Z" />
<glyph unicode="X" glyph-name="X" horiz-adv-x="706" d="M312 328L35 643H120L352 379L589 643H674L395 330L684 0H599L356 277L107 0H22L312 328Z" />
<glyph unicode="Y" glyph-name="Y" horiz-adv-x="644" d="M99 643L322 317L546 643H628L358 257V0H287V256L17 643H99Z" />
<glyph unicode="Z" glyph-name="Z" horiz-adv-x="693" d="M127 60H656V0H36V60L560 583H59V643H652V585L127 60Z" />
<glyph unicode="[" glyph-name="bracketleft" horiz-adv-x="265" d="M214 730V676H115V-48H214V-102H51V730H214Z" />
<glyph unicode="\" glyph-name="backslash" horiz-adv-x="411" d="M291 0L4 643H74L360 0H291Z" />
<glyph unicode="]" glyph-name="bracketright" horiz-adv-x="265" d="M51 676V730H214V-102H51V-48H150V676H51Z" />
<glyph unicode="^" glyph-name="asciicircum" horiz-adv-x="396" d="M162 660H234L356 374H295L198 605L101 374H40L162 660Z" />
<glyph unicode="_" glyph-name="underscore" horiz-adv-x="706" d="M599 -68H108V-8H599V-68Z" />
<glyph unicode="`" glyph-name="grave" horiz-adv-x="246" d="M144 617L195 500H144L51 617H144Z" />
<glyph unicode="a" glyph-name="a" horiz-adv-x="529" d="M48 165Q61 189 81 205T131 235T188 255T250 269T305 277T353 281T382 283Q382 345 353 375T261 405Q226 405 200 397T162 376T144 352T136 332L135 323H61Q61 329 62 338T74 370T103 412T163 445T262
460Q451 460 451 284V89Q451 72 456 66T479 60H511V0H478Q427 0 406 17T382 80Q323 -10 197 -10Q120 -10 78 23T35 113Q35 141 48 165ZM108 113Q109 79 135 63T199 46Q202 46 204 46Q268 46 325 84T382 182V230Q357 228 350 228T311 224T263 217T219 207T174 193T141
173T116 148T108 117Q108 115 108 113Z" />
<glyph unicode="b" glyph-name="b" horiz-adv-x="550" d="M120 643V381Q182 460 287 460Q398 460 460 395T523 223Q523 116 461 53T294 -10Q288 -10 281 -10Q177 -7 117 75V0H51V643H120ZM161 97Q204 46 281 46Q357 46 404 95T452 223Q452 307 405 355T281 404T161
355T117 225Q117 148 161 97Z" />
<glyph unicode="c" glyph-name="c" horiz-adv-x="503" d="M92 396Q156 460 264 460Q319 460 361 446T424 411T458 370T475 336L478 321H403L400 330Q398 336 388 350T365 375T324 395T264 404Q190 404 145 356T99 227T145 97T264 46Q298 46 325 56T366 81T389
111T400 136L403 147H478Q477 141 475 130T459 92T424 45T361 7T264 -10Q155 -10 91 54T27 227Q27 332 92 396Z" />
<glyph unicode="d" glyph-name="d" horiz-adv-x="550" d="M27 223Q27 329 89 394T263 460Q370 460 431 379V643H500V0H433V74Q374 -7 269 -10Q262 -10 256 -10Q152 -10 90 53T27 223ZM99 223Q99 144 146 95Q193 46 270 46T390 97T433 225Q433 305 390 354T270
404T146 356T99 223Z" />
<glyph unicode="e" glyph-name="e" horiz-adv-x="504" d="M27 224Q27 329 88 394T257 460Q319 460 365 436T435 374T469 298T478 230Q478 216 476 201H98Q102 131 142 89T258 46Q291 46 317 55T357 79T380 107T393 130L396 140H469Q468 134 466 124T449 88T413
42T351 6T257 -10Q151 -10 89 53T27 224ZM98 258H407Q407 261 407 264Q407 319 368 361T258 404Q185 404 144 361T98 258Z" />
<glyph unicode="f" glyph-name="f" horiz-adv-x="310" d="M93 450V554Q93 605 114 624T190 643H290V583H190Q173 583 168 577T162 554V450H290V390H162V0H93V390H23V450H93Z" />
<glyph unicode="g" glyph-name="g" horiz-adv-x="550" d="M27 223Q27 329 89 394T263 460Q372 460 433 377V450H500V-94Q500 -145 478 -164T403 -183H63V-123H403Q419 -123 425 -117T431 -94V72Q371 -7 269 -10Q262 -10 256 -10Q152 -10 90 53T27 223ZM99 223Q99
144 146 95Q193 46 270 46T390 97T433 225Q433 305 390 354T270 404T146 356T99 223Z" />
<glyph unicode="h" glyph-name="h" horiz-adv-x="512" d="M51 643H120V372Q139 411 179 435T270 460Q272 460 274 460Q375 460 422 408T469 247V0H399V247Q399 329 369 365T271 401Q202 401 161 360T120 229V0H51V643Z" />
<glyph unicode="i" glyph-name="i" horiz-adv-x="206" d="M138 450V0H69V450H138ZM51 600Q51 622 66 637T102 653Q124 653 139 638T155 600Q155 579 140 564T102 549Q81 549 66 564T51 600Z" />
<glyph unicode="j" glyph-name="j" horiz-adv-x="210" d="M45 -123Q62 -123 67 -117T73 -94V450H142V-94Q142 -145 120 -164T45 -183H-40V-123H45ZM55 600Q55 622 70 637T106 653Q128 653 143 638T159 600Q159 579 144 564T106 549Q85 549 70 564T55 600Z" />
<glyph unicode="k" glyph-name="k" horiz-adv-x="465" d="M51 0V643H120V215L342 450H428L257 269L455 0H377L212 221L120 124V0H51Z" />
<glyph unicode="l" glyph-name="l" horiz-adv-x="210" d="M54 643H123V89Q123 72 128 66T151 60H193V0H151Q97 0 76 19T54 89V643Z" />
<glyph unicode="m" glyph-name="m" horiz-adv-x="825" d="M117 450V367Q134 407 173 433T262 460Q263 460 265 460Q394 460 433 361Q451 403 494 431T593 460Q595 460 597 460Q690 460 735 409T781 251V0H712V251Q712 330 682 365T590 401Q450 401 450 229V0H381V251Q381
330 351 365T259 401Q195 401 158 360T120 229V0H51V450H117Z" />
<glyph unicode="n" glyph-name="n" horiz-adv-x="512" d="M117 450V365Q135 406 176 432T270 460Q272 460 274 460Q375 460 422 408T469 247V0H399V247Q399 329 369 365T271 401Q202 401 161 360T120 229V0H51V450H117Z" />
<glyph unicode="o" glyph-name="o" horiz-adv-x="541" d="M93 394Q159 460 270 460T447 394T513 225Q513 120 448 55T270 -10Q159 -10 93 55T27 225Q27 328 93 394ZM98 225Q98 144 144 95T270 46Q348 46 395 95T442 225Q442 304 396 354T270 404Q192 404 145 354T98 225Z" />
<glyph unicode="p" glyph-name="p" horiz-adv-x="550" d="M51 450H117V377Q178 460 287 460Q398 460 460 395T523 223Q523 116 461 53T294 -10Q288 -10 281 -10Q181 -7 120 71V-183H51V450ZM117 225Q117 148 160 97T281 46Q357 46 404 95T452 223Q452 307 405
355T281 404T161 355T117 225Z" />
<glyph unicode="q" glyph-name="q" horiz-adv-x="547" d="M27 223Q27 329 89 394T263 460Q372 460 433 377V450H500V-183H431V72Q371 -7 269 -10Q262 -10 256 -10Q152 -10 90 53T27 223ZM99 223Q99 144 146 95Q193 46 270 46T390 97T433 225Q433 305 390 354T270
404T146 356T99 223Z" />
<glyph unicode="r" glyph-name="r" horiz-adv-x="332" d="M117 450V366Q155 450 246 450H312V390H248Q172 390 147 345T120 186V0H51V450H117Z" />
<glyph unicode="s" glyph-name="s" horiz-adv-x="467" d="M101 138Q101 134 102 128T110 106T130 78T171 56T237 46Q306 46 337 68T368 127Q368 130 368 132Q366 163 332 180T251 204T156 221T77 258T43 330Q43 331 43 332Q43 380 89 420T230 460Q282 460 321
447T380 415T410 377T424 344L426 331H351Q351 334 350 339T341 357T321 380T285 398T230 406Q176 406 145 386T113 334Q113 332 113 330Q114 306 138 291T197 271T275 257T352 237T413 199T440 132Q440 129 440 127Q440 67 393 29T237 -10Q179 -10 137 5T74 42T42
86T28 123L27 138H101Z" />
<glyph unicode="t" glyph-name="t" horiz-adv-x="305" d="M10 450H82V581H151V450H278V390H151V89Q151 72 156 66T178 60H275V0H178Q125 0 104 19T82 89V390H10V450Z" />
<glyph unicode="u" glyph-name="u" horiz-adv-x="497" d="M42 194V450H111V194Q111 117 143 83T238 49Q300 49 338 91T377 219V450H446V0H380V86Q362 46 325 18T235 -10Q137 -10 90 40T42 194Z" />
<glyph unicode="v" glyph-name="v" horiz-adv-x="486" d="M86 450L242 74L400 450H474L281 0H204L12 450H86Z" />
<glyph unicode="w" glyph-name="w" horiz-adv-x="735" d="M86 450L209 77L334 450H401L525 77L649 450H723L563 0H487L367 362L247 0H171L12 450H86Z" />
<glyph unicode="x" glyph-name="x" horiz-adv-x="534" d="M223 231L25 450H110L262 282L414 450H500L305 234L516 0H431L266 183L103 0H18L223 231Z" />
<glyph unicode="y" glyph-name="y" horiz-adv-x="464" d="M12 450H86L228 86L377 450H452L227 -92Q214 -121 209 -130T191 -156T160 -178T114 -183H37V-123H114Q128 -123 135 -119T145 -112T155 -92L196 7L12 450Z" />
<glyph unicode="z" glyph-name="z" horiz-adv-x="497" d="M117 60H473V0H27V60L368 390H42V450H459V392L117 60Z" />
<glyph unicode="{" glyph-name="braceleft" horiz-adv-x="244" d="M97 383V642Q97 679 114 695T173 712H193V662H173Q154 662 154 642V383Q154 325 123 303Q154 279 154 222V-30Q154 -50 173 -50H193V-100H173Q131 -100 114 -84T97 -30V222Q97 284 51 284V321Q97
321 97 383Z" />
<glyph unicode="|" glyph-name="bar" horiz-adv-x="166" d="M115 -70H51V713H115V-70Z" />
<glyph unicode="}" glyph-name="braceright" horiz-adv-x="244" d="M51 -50H71Q90 -50 90 -30V222Q90 279 121 303Q90 325 90 383V642Q90 662 71 662H51V712H71Q112 712 129 696T147 642V383Q147 321 193 321V284Q147 284 147 222V-30Q147 -67 130 -83T71 -100H51V-50Z" />
<glyph unicode="~" glyph-name="asciitilde" horiz-adv-x="671" d="M143 336Q179 376 244 376Q290 376 343 346T427 315Q451 315 469 321T497 335T512 353T519 368L520 374H564Q564 338 529 298T427 258Q383 258 330 288T244 319Q206 319 183 305T156 275L151
260H107Q107 296 143 336Z" />
</font>
</defs>
</svg>
